<?xml version="1.0" standalone="no"?>
<!DOCTYPE svg PUBLIC "-//W3C//DTD SVG 20010904//EN"
 "http://www.w3.org/TR/2001/REC-SVG-20010904/DTD/svg10.dtd">
<svg version="1.0" xmlns="http://www.w3.org/2000/svg"
 width="180.000000pt" height="180.000000pt" viewBox="0 0 180.000000 180.000000"
 preserveAspectRatio="xMidYMid meet">
<metadata>
Created by potrace 1.11, written by Peter Selinger 2001-2013
</metadata>
<g transform="translate(0.000000,180.000000) scale(0.100000,-0.100000)"
fill="#000000" stroke="none">
<path d="M753 1789 c-337 -64 -607 -313 -695 -638 -24 -89 -33 -294 -17 -381
35 -187 125 -350 267 -484 103 -97 205 -156 356 -204 71 -22 99 -25 231 -26
126 -1 163 3 232 21 305 84 542 319 625 621 31 111 31 343 0 455 -25 90 -86
216 -141 290 -43 59 -137 152 -197 196 -69 51 -204 112 -298 136 -96 23 -277
31 -363 14z"/>
</g>
</svg>
